<svg width="25" height="24" viewBox="0 0 25 24" fill="none" xmlns="http://www.w3.org/2000/svg">
<path d="M21.3333 17.25V9H3.33325V17.25C3.33325 18.2446 3.72834 19.1984 4.4316 19.9016C5.13486 20.6049 6.08869 21 7.08325 21H17.5833C18.5778 21 19.5316 20.6049 20.2349 19.9016C20.9382 19.1984 21.3333 18.2446 21.3333 17.25ZM9.32875 12.372C9.32875 12.6698 9.21046 12.9553 8.99991 13.1659C8.78935 13.3765 8.50377 13.4948 8.206 13.4948C7.90823 13.4948 7.62265 13.3765 7.4121 13.1659C7.20154 12.9553 7.08325 12.6698 7.08325 12.372C7.08325 12.0742 7.20154 11.7887 7.4121 11.5781C7.62265 11.3675 7.90823 11.2492 8.206 11.2492C8.50377 11.2492 8.78935 11.3675 8.99991 11.5781C9.21046 11.7887 9.32875 12.0742 9.32875 12.372ZM9.32875 16.122C9.32875 16.4198 9.21046 16.7053 8.99991 16.9159C8.78935 17.1265 8.50377 17.2448 8.206 17.2448C7.90823 17.2448 7.62265 17.1265 7.4121 16.9159C7.20154 16.7053 7.08325 16.4198 7.08325 16.122C7.08325 15.8242 7.20154 15.5387 7.4121 15.3281C7.62265 15.1175 7.90823 14.9993 8.206 14.9993C8.50377 14.9993 8.78935 15.1175 8.99991 15.3281C9.21046 15.5387 9.32875 15.8242 9.32875 16.122ZM13.4568 12.372C13.4568 12.6698 13.3385 12.9553 13.1279 13.1659C12.9174 13.3765 12.6318 13.4948 12.334 13.4948C12.0362 13.4948 11.7507 13.3765 11.5401 13.1659C11.3295 12.9553 11.2113 12.6698 11.2113 12.372C11.2113 12.0742 11.3295 11.7887 11.5401 11.5781C11.7507 11.3675 12.0362 11.2492 12.334 11.2492C12.6318 11.2492 12.9174 11.3675 13.1279 11.5781C13.3385 11.7887 13.4568 12.0742 13.4568 12.372ZM13.4568 16.122C13.4568 16.4198 13.3385 16.7053 13.1279 16.9159C12.9174 17.1265 12.6318 17.2448 12.334 17.2448C12.0362 17.2448 11.7507 17.1265 11.5401 16.9159C11.3295 16.7053 11.2113 16.4198 11.2113 16.122C11.2113 15.8242 11.3295 15.5387 11.5401 15.3281C11.7507 15.1175 12.0362 14.9993 12.334 14.9993C12.6318 14.9993 12.9174 15.1175 13.1279 15.3281C13.3385 15.5387 13.4568 15.8242 13.4568 16.122ZM17.5788 12.372C17.5788 12.6698 17.4605 12.9553 17.2499 13.1659C17.0393 13.3765 16.7538 13.4948 16.456 13.4948C16.1582 13.4948 15.8727 13.3765 15.6621 13.1659C15.4515 12.9553 15.3333 12.6698 15.3333 12.372C15.3333 12.0742 15.4515 11.7887 15.6621 11.5781C15.8727 11.3675 16.1582 11.2492 16.456 11.2492C16.7538 11.2492 17.0393 11.3675 17.2499 11.5781C17.4605 11.7887 17.5788 12.0742 17.5788 12.372ZM21.3333 6.75C21.3333 5.75544 20.9382 4.80161 20.2349 4.09835C19.5316 3.39509 18.5778 3 17.5833 3H7.08325C6.08869 3 5.13486 3.39509 4.4316 4.09835C3.72834 4.80161 3.33325 5.75544 3.33325 6.75V7.5H21.3333V6.75Z" fill="#F47321"/>
</svg>
