<svg width="18" height="18" viewBox="0 0 18 18" fill="none" xmlns="http://www.w3.org/2000/svg">
<g clip-path="url(#clip0_520_10905)">
<path fill-rule="evenodd" clip-rule="evenodd" d="M7.00762 0.223291C8.24765 -0.0581981 9.53326 -0.0737257 10.7797 0.177731C12.0262 0.429189 13.2052 0.941922 14.2391 1.68215C15.2731 2.42237 16.1384 3.37329 16.7781 4.47223C17.4178 5.57117 17.8174 6.7932 17.9505 8.05779C17.9739 8.28037 17.908 8.50315 17.7671 8.6771C17.6263 8.85105 17.4221 8.96193 17.1996 8.98535C16.977 9.00878 16.7542 8.94282 16.5803 8.80199C16.4063 8.66116 16.2954 8.457 16.272 8.23442C16.1274 6.86037 15.5964 5.5554 14.7407 4.47068C13.8849 3.38596 12.7394 2.56588 11.4367 2.10541C10.1341 1.64494 8.72765 1.56294 7.38031 1.86891C6.03298 2.17487 4.79989 2.85628 3.82389 3.8342C2.84788 4.81213 2.16889 6.04655 1.86557 7.39448C1.56224 8.74241 1.647 10.1487 2.11002 11.4504C2.57304 12.7522 3.39538 13.8961 4.48177 14.7497C5.56817 15.6034 6.87417 16.1317 8.2485 16.2737C8.35952 16.284 8.46739 16.3163 8.56588 16.3686C8.66436 16.4209 8.7515 16.4922 8.82226 16.5783C8.89302 16.6645 8.946 16.7639 8.97813 16.8706C9.01026 16.9774 9.02091 17.0895 9.00946 17.2004C8.99802 17.3113 8.9647 17.4189 8.91143 17.5168C8.85817 17.6148 8.78601 17.7012 8.69914 17.7711C8.61227 17.841 8.51241 17.893 8.40532 17.9241C8.29823 17.9552 8.18605 17.9647 8.07525 17.9522C5.95228 17.7337 3.97602 16.768 2.49919 15.2273C1.02237 13.6866 0.141109 11.6713 0.0126954 9.54096C-0.115718 7.41065 0.517078 5.30403 1.79814 3.5971C3.07919 1.89017 4.92514 0.69403 7.0065 0.222166L7.00762 0.223291ZM12.69 11.4958C12.6121 11.4152 12.519 11.351 12.416 11.3068C12.3131 11.2627 12.2023 11.2394 12.0903 11.2385C11.9783 11.2376 11.8672 11.259 11.7635 11.3015C11.6598 11.344 11.5657 11.4066 11.4865 11.4859C11.4073 11.5652 11.3447 11.6594 11.3023 11.7631C11.2599 11.8668 11.2386 11.9779 11.2397 12.09C11.2407 12.202 11.264 12.3127 11.3083 12.4156C11.3526 12.5185 11.4169 12.6116 11.4975 12.6894L13.4325 14.6244L11.4975 16.5594C11.4146 16.6367 11.3481 16.7298 11.302 16.8333C11.2559 16.9368 11.2311 17.0485 11.2291 17.1618C11.2271 17.2751 11.2479 17.3877 11.2904 17.4927C11.3328 17.5978 11.396 17.6932 11.4761 17.7733C11.5562 17.8535 11.6516 17.9166 11.7567 17.9591C11.8618 18.0015 11.9743 18.0223 12.0876 18.0203C12.2009 18.0183 12.3126 17.9935 12.4161 17.9474C12.5196 17.9013 12.6128 17.8348 12.69 17.7519L14.625 15.8169L16.56 17.7519C16.6372 17.8348 16.7304 17.9013 16.8339 17.9474C16.9374 17.9935 17.0491 18.0183 17.1624 18.0203C17.2757 18.0223 17.3882 18.0015 17.4933 17.9591C17.5984 17.9166 17.6938 17.8535 17.7739 17.7733C17.854 17.6932 17.9172 17.5978 17.9596 17.4927C18.0021 17.3877 18.0229 17.2751 18.0209 17.1618C18.0189 17.0485 17.9941 16.9368 17.948 16.8333C17.9019 16.7298 17.8354 16.6367 17.7525 16.5594L15.8175 14.6244L17.7525 12.6894C17.8354 12.6122 17.9019 12.519 17.948 12.4155C17.9941 12.312 18.0189 12.2003 18.0209 12.087C18.0229 11.9737 18.0021 11.8612 17.9596 11.7561C17.9172 11.6511 17.854 11.5556 17.7739 11.4755C17.6938 11.3954 17.5984 11.3322 17.4933 11.2898C17.3882 11.2473 17.2757 11.2265 17.1624 11.2285C17.0491 11.2305 16.9374 11.2553 16.8339 11.3014C16.7304 11.3475 16.6372 11.414 16.56 11.4969L14.625 13.4319L12.69 11.4969V11.4958ZM12.9712 7.06442C13.1203 6.90447 13.2014 6.69292 13.1976 6.47433C13.1937 6.25574 13.1052 6.04718 12.9506 5.89259C12.796 5.738 12.5874 5.64945 12.3688 5.64559C12.1502 5.64174 11.9387 5.72288 11.7788 5.87192L7.3125 10.3382L5.94 8.96567C5.78005 8.81663 5.5685 8.73549 5.34991 8.73934C5.13132 8.7432 4.92276 8.83175 4.76818 8.98634C4.61359 9.14093 4.52503 9.34949 4.52118 9.56808C4.51732 9.78667 4.59846 9.99822 4.7475 10.1582L6.71625 12.1269C6.87445 12.2849 7.08891 12.3737 7.3125 12.3737C7.53609 12.3737 7.75055 12.2849 7.90875 12.1269L12.9712 7.06442Z" fill="black"/>
</g>
<defs>
<clipPath id="clip0_520_10905">
<rect width="18" height="18" fill="white"/>
</clipPath>
</defs>
</svg>
