<svg width="25" height="24" viewBox="0 0 25 24" fill="none" xmlns="http://www.w3.org/2000/svg">
<path fill-rule="evenodd" clip-rule="evenodd" d="M19.601 6.45104C19.6866 6.36563 19.7544 6.26421 19.8007 6.15258C19.8471 6.04094 19.8709 5.92127 19.871 5.80041C19.8711 5.67954 19.8474 5.55985 19.8012 5.44815C19.755 5.33646 19.6873 5.23496 19.6018 5.14944C19.5164 5.06393 19.415 4.99607 19.3034 4.94975C19.1917 4.90343 19.0721 4.87955 18.9512 4.87947C18.8303 4.8794 18.7106 4.90313 18.599 4.94931C18.4873 4.9955 18.3858 5.06323 18.3002 5.14864L12.7498 10.699L7.20104 5.14864C7.02833 4.97593 6.79409 4.87891 6.54984 4.87891C6.30559 4.87891 6.07135 4.97593 5.89864 5.14864C5.72593 5.32135 5.62891 5.55559 5.62891 5.79984C5.62891 6.04409 5.72593 6.27833 5.89864 6.45104L11.449 11.9998L5.89864 17.5486C5.81313 17.6342 5.74529 17.7357 5.69901 17.8474C5.65273 17.9591 5.62891 18.0789 5.62891 18.1998C5.62891 18.3208 5.65273 18.4405 5.69901 18.5523C5.74529 18.664 5.81313 18.7655 5.89864 18.851C6.07135 19.0237 6.30559 19.1208 6.54984 19.1208C6.67078 19.1208 6.79054 19.097 6.90227 19.0507C7.014 19.0044 7.11553 18.9366 7.20104 18.851L12.7498 13.3006L18.3002 18.851C18.473 19.0235 18.7071 19.1204 18.9512 19.1202C19.1953 19.1201 19.4293 19.0229 19.6018 18.8502C19.7743 18.6775 19.8712 18.4434 19.871 18.1993C19.8709 17.9552 19.7738 17.7211 19.601 17.5486L14.0506 11.9998L19.601 6.45104Z" fill="#F47321"/>
</svg>
