<svg width="18" height="20" viewBox="0 0 18 20" fill="none" xmlns="http://www.w3.org/2000/svg">
<path d="M7.34375 3.46875V3.8125H10.7812V3.46875C10.7812 3.01291 10.6002 2.57574 10.2778 2.25341C9.95551 1.93108 9.51834 1.75 9.0625 1.75C8.60666 1.75 8.16949 1.93108 7.84716 2.25341C7.52483 2.57574 7.34375 3.01291 7.34375 3.46875ZM5.96875 3.8125V3.46875C5.96875 2.64824 6.2947 1.86133 6.87489 1.28114C7.45508 0.700948 8.24199 0.375 9.0625 0.375C9.88301 0.375 10.6699 0.700948 11.2501 1.28114C11.8303 1.86133 12.1562 2.64824 12.1562 3.46875V3.8125H17.3125C17.4948 3.8125 17.6697 3.88493 17.7986 4.01386C17.9276 4.1428 18 4.31766 18 4.5C18 4.68234 17.9276 4.8572 17.7986 4.98614C17.6697 5.11507 17.4948 5.1875 17.3125 5.1875H16.2758L14.975 16.578C14.8791 17.4169 14.4778 18.1911 13.8476 18.7531C13.2174 19.315 12.4025 19.6254 11.5581 19.625H6.56687C5.72253 19.6254 4.90757 19.315 4.2774 18.7531C3.64722 18.1911 3.24592 17.4169 3.15 16.578L1.84925 5.1875H0.8125C0.630164 5.1875 0.455295 5.11507 0.326364 4.98614C0.197433 4.8572 0.125 4.68234 0.125 4.5C0.125 4.31766 0.197433 4.1428 0.326364 4.01386C0.455295 3.88493 0.630164 3.8125 0.8125 3.8125H5.96875ZM4.51675 16.4212C4.57415 16.9244 4.81468 17.3889 5.19251 17.7262C5.57034 18.0634 6.05905 18.2499 6.5655 18.25H11.5588C12.0653 18.2499 12.554 18.0634 12.9318 17.7262C13.3096 17.3889 13.5502 16.9244 13.6076 16.4212L14.8925 5.1875H3.23319L4.51675 16.4212ZM7 7.59375C7.18234 7.59375 7.3572 7.66618 7.48614 7.79511C7.61507 7.92405 7.6875 8.09891 7.6875 8.28125V15.1562C7.6875 15.3386 7.61507 15.5135 7.48614 15.6424C7.3572 15.7713 7.18234 15.8438 7 15.8438C6.81766 15.8438 6.6428 15.7713 6.51386 15.6424C6.38493 15.5135 6.3125 15.3386 6.3125 15.1562V8.28125C6.3125 8.09891 6.38493 7.92405 6.51386 7.79511C6.6428 7.66618 6.81766 7.59375 7 7.59375ZM11.8125 8.28125C11.8125 8.09891 11.7401 7.92405 11.6111 7.79511C11.4822 7.66618 11.3073 7.59375 11.125 7.59375C10.9427 7.59375 10.7678 7.66618 10.6389 7.79511C10.5099 7.92405 10.4375 8.09891 10.4375 8.28125V15.1562C10.4375 15.3386 10.5099 15.5135 10.6389 15.6424C10.7678 15.7713 10.9427 15.8438 11.125 15.8438C11.3073 15.8438 11.4822 15.7713 11.6111 15.6424C11.7401 15.5135 11.8125 15.3386 11.8125 15.1562V8.28125Z" fill="#FF0000"/>
</svg>
