<svg width="40" height="32" viewBox="0 0 40 32" fill="none" xmlns="http://www.w3.org/2000/svg">
<rect width="40" height="32" rx="6" fill="#F47321"/>
<path d="M15.1429 17.0909C14.8273 17.0909 14.5714 17.3351 14.5714 17.6364C14.5714 17.9376 14.8273 18.1818 15.1429 18.1818H18.8571C19.1727 18.1818 19.4286 17.9376 19.4286 17.6364C19.4286 17.3351 19.1727 17.0909 18.8571 17.0909H15.1429Z" fill="white"/>
<path fill-rule="evenodd" clip-rule="evenodd" d="M12.1868 10.8935C12 11.2435 12 11.7017 12 12.6182V19.3818C12 20.2983 12 20.7565 12.1868 21.1065C12.3512 21.4144 12.6135 21.6648 12.936 21.8216C13.3027 22 13.7828 22 14.7429 22H25.2571C26.2172 22 26.6973 22 27.064 21.8216C27.3865 21.6648 27.6488 21.4144 27.8132 21.1065C28 20.7565 28 20.2983 28 19.3818V12.6182C28 11.7017 28 11.2435 27.8132 10.8935C27.6488 10.5856 27.3865 10.3352 27.064 10.1784C26.6973 10 26.2172 10 25.2571 10H14.7429C13.7828 10 13.3027 10 12.936 10.1784C12.6135 10.3352 12.3512 10.5856 12.1868 10.8935ZM25.2571 11.0909H14.7429C14.244 11.0909 13.9385 11.0918 13.71 11.1096C13.6035 11.1179 13.5391 11.1283 13.5 11.1371C13.4814 11.1413 13.4699 11.1448 13.4638 11.1469C13.4578 11.1489 13.4549 11.1504 13.4549 11.1504C13.3473 11.2027 13.2599 11.2861 13.2051 11.3887C13.2051 11.3887 13.2036 11.3916 13.2015 11.3972C13.1993 11.4031 13.1956 11.4141 13.1913 11.4318C13.182 11.4692 13.1711 11.5306 13.1624 11.6323C13.1437 11.8504 13.1429 12.142 13.1429 12.6182V13.8182H26.8571V12.6182C26.8571 12.142 26.8563 11.8504 26.8376 11.6323C26.8289 11.5306 26.818 11.4692 26.8087 11.4318C26.8044 11.4141 26.8007 11.4031 26.7985 11.3972C26.7964 11.3916 26.7949 11.3887 26.7949 11.3887C26.7401 11.2861 26.6527 11.2027 26.5451 11.1504C26.5451 11.1504 26.5422 11.1489 26.5362 11.1469C26.5301 11.1448 26.5186 11.1413 26.5 11.1371C26.4609 11.1283 26.3965 11.1179 26.29 11.1096C26.0615 11.0918 25.756 11.0909 25.2571 11.0909ZM13.1429 19.3818V14.9091H26.8571V19.3818C26.8571 19.858 26.8563 20.1496 26.8376 20.3677C26.8289 20.4694 26.818 20.5308 26.8087 20.5682C26.8044 20.5859 26.8007 20.5969 26.7985 20.6028C26.7964 20.6084 26.7949 20.6113 26.7949 20.6113C26.7401 20.7139 26.6527 20.7973 26.5451 20.8496C26.5451 20.8496 26.5422 20.8511 26.5362 20.8531C26.5301 20.8552 26.5186 20.8587 26.5 20.8629C26.4609 20.8717 26.3965 20.8821 26.29 20.8904C26.0615 20.9082 25.756 20.9091 25.2571 20.9091H14.7429C14.244 20.9091 13.9385 20.9082 13.71 20.8904C13.6035 20.8821 13.5391 20.8717 13.5 20.8629C13.4814 20.8587 13.4699 20.8552 13.4638 20.8531C13.4578 20.8511 13.4549 20.8496 13.4549 20.8496C13.3473 20.7973 13.2599 20.7139 13.2051 20.6113C13.2051 20.6113 13.2036 20.6084 13.2015 20.6028C13.1993 20.5969 13.1956 20.5859 13.1913 20.5682C13.182 20.5308 13.1711 20.4694 13.1624 20.3677C13.1437 20.1496 13.1429 19.858 13.1429 19.3818Z" fill="white"/>
</svg>
