<svg width="24" height="24" viewBox="0 0 24 24" fill="none" xmlns="http://www.w3.org/2000/svg">
<path d="M20.33 3.6691C20.1408 3.48127 19.9035 3.34922 19.6442 3.28748C19.3849 3.22573 19.1135 3.23667 18.86 3.3191L4.23 8.1991C3.95867 8.28508 3.71891 8.44953 3.54099 8.6717C3.36307 8.89386 3.25498 9.16376 3.23037 9.44732C3.20576 9.73088 3.26573 10.0154 3.40271 10.2649C3.5397 10.5144 3.74754 10.7177 4 10.8491L10.07 13.8491L13.07 19.9391C13.1906 20.1775 13.3751 20.3776 13.6029 20.5171C13.8307 20.6566 14.0929 20.73 14.36 20.7291H14.46C14.7461 20.708 15.0192 20.6014 15.2439 20.4231C15.4686 20.2447 15.6345 20.0029 15.72 19.7291L20.67 5.1391C20.7584 4.88704 20.7734 4.61505 20.7132 4.3548C20.653 4.09455 20.5201 3.85676 20.33 3.6691ZM4.85 9.5791L17.62 5.3191L10.53 12.4091L4.85 9.5791ZM14.43 19.1491L11.59 13.4691L18.68 6.3791L14.43 19.1491Z" fill="white"/>
</svg>
