<svg width="23" height="22" viewBox="0 0 23 22" fill="none" xmlns="http://www.w3.org/2000/svg">
<path d="M15.7679 4.95717L17.7094 6.89776M17.0164 3.24759L11.7666 8.49734C11.4954 8.76822 11.3104 9.11333 11.235 9.48918L10.7501 11.9165L13.1774 11.4307C13.5532 11.3555 13.8979 11.1713 14.1692 10.8999L19.419 5.65017C19.5767 5.49242 19.7019 5.30514 19.7872 5.09902C19.8726 4.8929 19.9166 4.67198 19.9166 4.44888C19.9166 4.22578 19.8726 4.00487 19.7872 3.79875C19.7019 3.59263 19.5767 3.40535 19.419 3.24759C19.2612 3.08984 19.0739 2.9647 18.8678 2.87932C18.6617 2.79394 18.4408 2.75 18.2177 2.75C17.9946 2.75 17.7737 2.79394 17.5676 2.87932C17.3614 2.9647 17.1742 3.08984 17.0164 3.24759Z" stroke="#026E0B" stroke-width="1.33333" stroke-linecap="round" stroke-linejoin="round"/>
<path d="M18.0834 13.7487V16.4987C18.0834 16.9849 17.8902 17.4512 17.5464 17.7951C17.2026 18.1389 16.7363 18.332 16.25 18.332H6.16671C5.68048 18.332 5.21416 18.1389 4.87034 17.7951C4.52653 17.4512 4.33337 16.9849 4.33337 16.4987V6.41536C4.33337 5.92913 4.52653 5.46282 4.87034 5.119C5.21416 4.77519 5.68048 4.58203 6.16671 4.58203H8.91671" stroke="#026E0B" stroke-width="1.33333" stroke-linecap="round" stroke-linejoin="round"/>
</svg>
