<svg width="20" height="20" viewBox="0 0 20 20" fill="none" xmlns="http://www.w3.org/2000/svg">
<g clip-path="url(#clip0_90_10931)">
<path fill-rule="evenodd" clip-rule="evenodd" d="M10.5892 13.0883C10.4329 13.2445 10.221 13.3323 10 13.3323C9.77903 13.3323 9.56711 13.2445 9.41083 13.0883L4.69667 8.37415C4.61708 8.29727 4.55359 8.20532 4.50992 8.10365C4.46624 8.00198 4.44325 7.89263 4.44229 7.78198C4.44133 7.67133 4.46242 7.5616 4.50432 7.45919C4.54622 7.35677 4.60809 7.26373 4.68634 7.18548C4.76458 7.10724 4.85763 7.04536 4.96004 7.00346C5.06245 6.96156 5.17219 6.94048 5.28284 6.94144C5.39348 6.9424 5.50283 6.96539 5.6045 7.00906C5.70617 7.05274 5.79813 7.11622 5.875 7.19581L10 11.3208L14.125 7.19581C14.2822 7.04401 14.4927 6.96002 14.7112 6.96192C14.9297 6.96382 15.1387 7.05146 15.2932 7.20596C15.4477 7.36047 15.5353 7.56948 15.5372 7.78798C15.5391 8.00648 15.4551 8.21698 15.3033 8.37415L10.5892 13.0883Z" fill="#616161"/>
</g>
<defs>
<clipPath id="clip0_90_10931">
<rect width="20" height="20" fill="white"/>
</clipPath>
</defs>
</svg>
