<svg width="18" height="18" viewBox="0 0 18 18" fill="none" xmlns="http://www.w3.org/2000/svg">
<path d="M10.125 7.3125C10.125 7.16332 10.0657 7.02024 9.96025 6.91475C9.85476 6.80926 9.71168 6.75 9.5625 6.75H5.0625C4.91332 6.75 4.77024 6.80926 4.66475 6.91475C4.55926 7.02024 4.5 7.16332 4.5 7.3125C4.5 7.46168 4.55926 7.60476 4.66475 7.71025C4.77024 7.81574 4.91332 7.875 5.0625 7.875H9.5625C9.71168 7.875 9.85476 7.81574 9.96025 7.71025C10.0657 7.60476 10.125 7.46168 10.125 7.3125ZM9.375 9.5625C9.375 9.41332 9.31574 9.27024 9.21025 9.16475C9.10476 9.05926 8.96168 9 8.8125 9H5.0625C4.91332 9 4.77024 9.05926 4.66475 9.16475C4.55926 9.27024 4.5 9.41332 4.5 9.5625C4.5 9.71168 4.55926 9.85476 4.66475 9.96025C4.77024 10.0657 4.91332 10.125 5.0625 10.125H8.8125C8.96168 10.125 9.10476 10.0657 9.21025 9.96025C9.31574 9.85476 9.375 9.71168 9.375 9.5625ZM9.5625 11.25C9.71168 11.25 9.85476 11.3093 9.96025 11.4148C10.0657 11.5202 10.125 11.6633 10.125 11.8125C10.125 11.9617 10.0657 12.1048 9.96025 12.2102C9.85476 12.3157 9.71168 12.375 9.5625 12.375H5.0625C4.91332 12.375 4.77024 12.3157 4.66475 12.2102C4.55926 12.1048 4.5 11.9617 4.5 11.8125C4.5 11.6633 4.55926 11.5202 4.66475 11.4148C4.77024 11.3093 4.91332 11.25 5.0625 11.25H9.5625Z" fill="white"/>
<path fill-rule="evenodd" clip-rule="evenodd" d="M4.5 16.3134H14.25C14.797 16.3134 15.3216 16.0961 15.7084 15.7093C16.0952 15.3225 16.3125 14.7979 16.3125 14.2509V10.1259C16.3125 9.9767 16.2532 9.83362 16.1477 9.72814C16.0423 9.62265 15.8992 9.56338 15.75 9.56338H13.3125V3.70813C13.3125 2.64088 12.1058 2.01988 11.2372 2.64013L11.106 2.73388C10.8186 2.9379 10.4747 3.04725 10.1223 3.04672C9.76981 3.04618 9.42629 2.93578 9.1395 2.73088C8.66072 2.39013 8.08766 2.20703 7.5 2.20703C6.91234 2.20703 6.33928 2.39013 5.8605 2.73088C5.57371 2.93578 5.23019 3.04618 4.87773 3.04672C4.52527 3.04725 4.18141 2.9379 3.894 2.73388L3.76275 2.64013C2.89425 2.01988 1.6875 2.64013 1.6875 3.70813V13.5009C1.6875 14.2468 1.98382 14.9622 2.51126 15.4896C3.03871 16.0171 3.75408 16.3134 4.5 16.3134ZM6.5145 3.64588C6.80246 3.44147 7.14686 3.33165 7.5 3.33165C7.85314 3.33165 8.19754 3.44147 8.4855 3.64588C8.96303 3.98722 9.53517 4.17104 10.1221 4.17172C10.7091 4.17239 11.2817 3.98988 11.76 3.64963L11.8912 3.55588C11.9193 3.53594 11.9522 3.52408 11.9865 3.52161C12.0208 3.51913 12.0551 3.52614 12.0857 3.54186C12.1163 3.55757 12.142 3.5814 12.1599 3.61072C12.1779 3.64005 12.1874 3.67375 12.1875 3.70813V14.2509C12.1875 14.5884 12.2685 14.9071 12.4125 15.1884H4.5C4.05245 15.1884 3.62323 15.0106 3.30676 14.6941C2.99029 14.3777 2.8125 13.9484 2.8125 13.5009V3.70813C2.81259 3.67375 2.82213 3.64005 2.84009 3.61072C2.85804 3.5814 2.88371 3.55757 2.91429 3.54186C2.94488 3.52614 2.97919 3.51913 3.01349 3.52161C3.04778 3.52408 3.08074 3.53594 3.10875 3.55588L3.24 3.64963C3.71831 3.98988 4.29087 4.17239 4.87785 4.17172C5.46483 4.17104 6.03697 3.98722 6.5145 3.64588ZM13.3125 14.2509V10.6884H15.1875V14.2509C15.1875 14.4995 15.0887 14.738 14.9129 14.9138C14.7371 15.0896 14.4986 15.1884 14.25 15.1884C14.0014 15.1884 13.7629 15.0896 13.5871 14.9138C13.4113 14.738 13.3125 14.4995 13.3125 14.2509Z" fill="white"/>
</svg>
