<svg width="40" height="32" viewBox="0 0 40 32" fill="none" xmlns="http://www.w3.org/2000/svg">
<rect width="40" height="32" rx="6" fill="#F47321"/>
<path fill-rule="evenodd" clip-rule="evenodd" d="M14.378 10C14.0768 9.99999 13.8169 9.99998 13.6028 10.0167C13.3769 10.0343 13.1522 10.0732 12.936 10.1784C12.6135 10.3352 12.3512 10.5856 12.1868 10.8935C12.0767 11.0999 12.0359 11.3143 12.0175 11.53C12 11.7343 12 11.9823 12 12.2699V19.7301C12 20.0176 12 20.2657 12.0175 20.47C12.0359 20.6857 12.0767 20.9001 12.1868 21.1065C12.3512 21.4144 12.6135 21.6648 12.936 21.8216C13.1522 21.9268 13.3769 21.9657 13.6028 21.9833C13.8169 22 14.0767 22 14.378 22H16.5714C16.887 22 17.1429 21.7558 17.1429 21.4545C17.1429 21.1533 16.887 20.9091 16.5714 20.9091H14.4C14.0705 20.9091 13.8578 20.9087 13.6959 20.896C13.5407 20.8839 13.4831 20.8634 13.4549 20.8496C13.3473 20.7973 13.2599 20.7139 13.2051 20.6113C13.1907 20.5843 13.1692 20.5294 13.1565 20.3812C13.1433 20.2266 13.1429 20.0236 13.1429 19.7091V14.9091H26.8571V19.7091C26.8571 20.0236 26.8567 20.2266 26.8435 20.3812C26.8308 20.5294 26.8093 20.5843 26.7949 20.6113C26.7401 20.7139 26.6527 20.7973 26.5451 20.8496C26.5169 20.8634 26.4593 20.8839 26.3041 20.896C26.1422 20.9087 25.9295 20.9091 25.6 20.9091H23.4286C23.113 20.9091 22.8571 21.1533 22.8571 21.4545C22.8571 21.7558 23.113 22 23.4286 22H25.622C25.9233 22 26.1831 22 26.3972 21.9833C26.6231 21.9657 26.8478 21.9268 27.064 21.8216C27.3865 21.6648 27.6488 21.4144 27.8132 21.1065C27.9233 20.9001 27.9641 20.6857 27.9825 20.47C28 20.2657 28 20.0177 28 19.7301V12.2699C28 11.9823 28 11.7343 27.9825 11.53C27.9641 11.3143 27.9233 11.0999 27.8132 10.8935C27.6488 10.5856 27.3865 10.3352 27.064 10.1784C26.8478 10.0732 26.6231 10.0343 26.3972 10.0167C26.1831 9.99998 25.9233 9.99999 25.622 10H14.378ZM26.8571 13.8182V12.2909C26.8571 11.9764 26.8567 11.7734 26.8435 11.6188C26.8308 11.4706 26.8093 11.4157 26.7949 11.3887C26.7401 11.2861 26.6527 11.2027 26.5451 11.1504C26.5169 11.1366 26.4593 11.1161 26.3041 11.104C26.1422 11.0913 25.9295 11.0909 25.6 11.0909H14.4C14.0705 11.0909 13.8578 11.0913 13.6959 11.104C13.5407 11.1161 13.4831 11.1366 13.4549 11.1504C13.3473 11.2027 13.2599 11.2861 13.2051 11.3887C13.1907 11.4157 13.1692 11.4706 13.1565 11.6188C13.1433 11.7734 13.1429 11.9764 13.1429 12.2909V13.8182H26.8571Z" fill="white"/>
<path d="M17.9199 19.0719C17.6775 19.2647 17.6447 19.6087 17.8467 19.8401L19.561 21.8037C19.6696 21.9281 19.8304 22 20 22C20.1696 22 20.3304 21.9281 20.439 21.8037L22.1533 19.8401C22.3553 19.6087 22.3225 19.2647 22.0801 19.0719C21.8377 18.879 21.4773 18.9103 21.2753 19.1417L20.5714 19.948V18.0182C20.5714 17.7169 20.3156 17.4727 20 17.4727C19.6844 17.4727 19.4286 17.7169 19.4286 18.0182V19.948L18.7247 19.1417C18.5227 18.9103 18.1623 18.879 17.9199 19.0719Z" fill="white"/>
</svg>
