<svg width="20" height="20" viewBox="0 0 20 20" fill="none" xmlns="http://www.w3.org/2000/svg">
<path d="M3.33335 6.66667C3.33335 4.89856 4.03573 3.20286 5.28598 1.95262C6.53622 0.702379 8.23191 0 10 0C11.7681 0 13.4638 0.702379 14.7141 1.95262C15.9643 3.20286 16.6667 4.89856 16.6667 6.66667V10.5808L18.3334 13.0808V16.6667H13.6575C13.468 17.4948 13.003 18.234 12.3386 18.7635C11.6743 19.2929 10.8499 19.5812 10.0004 19.5812C9.15093 19.5812 8.32656 19.2929 7.66223 18.7635C6.99789 18.234 6.5329 17.4948 6.34335 16.6667H1.66669V13.0808L3.33335 10.5808V6.66667ZM8.09002 16.6667C8.252 17.0385 8.51902 17.355 8.85831 17.5773C9.1976 17.7996 9.5944 17.918 10 17.918C10.4056 17.918 10.8024 17.7996 11.1417 17.5773C11.481 17.355 11.748 17.0385 11.91 16.6667H8.09002ZM10 1.66667C8.67394 1.66667 7.40217 2.19345 6.46449 3.13113C5.5268 4.06881 5.00002 5.34058 5.00002 6.66667V11.0858L3.33335 13.5858V15H16.6667V13.5858L15 11.0858V6.66667C15 5.34058 14.4732 4.06881 13.5356 3.13113C12.5979 2.19345 11.3261 1.66667 10 1.66667Z" fill="#616161"/>
</svg>
