<svg width="94" height="94" viewBox="0 0 94 94" fill="none" xmlns="http://www.w3.org/2000/svg">
<circle cx="47.0001" cy="46.7872" r="46.631" fill="#F6833C" fill-opacity="0.12"/>
<path d="M46.1662 24.5801C33.9311 24.5801 23.9609 34.5502 23.9609 46.7853C23.9609 59.0204 33.9311 68.9905 46.1662 68.9905C58.4013 68.9905 68.3714 59.0204 68.3714 46.7853C68.3714 34.5502 58.4013 24.5801 46.1662 24.5801ZM56.7803 41.6781L44.1899 54.2685C43.879 54.5793 43.4571 54.757 43.013 54.757C42.5689 54.757 42.147 54.5793 41.8361 54.2685L35.5521 47.9844C34.9081 47.3404 34.9081 46.2746 35.5521 45.6306C36.196 44.9867 37.2619 44.9867 37.9058 45.6306L43.013 50.7378L54.4265 39.3244C55.0705 38.6804 56.1363 38.6804 56.7803 39.3244C57.4242 39.9683 57.4242 41.0119 56.7803 41.6781Z" fill="#F47321"/>
</svg>
