<svg width="22" height="22" viewBox="0 0 22 22" fill="none" xmlns="http://www.w3.org/2000/svg">
<path fill-rule="evenodd" clip-rule="evenodd" d="M10.032 1.14648H11.968C13.6528 1.14648 14.9875 1.14648 16.0316 1.28673C17.1059 1.43157 17.9758 1.7359 18.6624 2.42157C19.3481 3.10815 19.6524 3.97807 19.7973 5.0524C19.9375 6.0974 19.9375 7.43115 19.9375 9.11599V12.8853C19.9375 14.5702 19.9375 15.9048 19.7973 16.9489C19.6524 18.0232 19.3481 18.8932 18.6624 19.5797C17.9758 20.2654 17.1059 20.5697 16.0316 20.7146C14.9866 20.8548 13.6528 20.8548 11.968 20.8548H10.032C8.34717 20.8548 7.0125 20.8548 5.96842 20.7146C4.89408 20.5697 4.02417 20.2654 3.33758 19.5797C2.65192 18.8932 2.34758 18.0232 2.20275 16.9489C2.0625 15.9039 2.0625 14.5702 2.0625 12.8853V9.11599C2.0625 7.43115 2.0625 6.09649 2.20275 5.0524C2.34758 3.97807 2.65192 3.10815 3.33758 2.42157C4.02417 1.7359 4.89408 1.43157 5.96842 1.28673C7.01342 1.14648 8.34717 1.14648 10.032 1.14648ZM6.15083 2.64982C5.22867 2.77357 4.697 3.0064 4.30833 3.39415C3.9215 3.7819 3.68867 4.31357 3.56492 5.23573C3.43842 6.17807 3.43658 7.41924 3.43658 9.16732V12.834C3.43658 14.5821 3.43842 15.8242 3.56492 16.7665C3.68867 17.6877 3.9215 18.2194 4.30925 18.6072C4.697 18.9949 5.22867 19.2277 6.15083 19.3515C7.09317 19.478 8.33433 19.4798 10.0824 19.4798H11.9157C13.6638 19.4798 14.9059 19.478 15.8482 19.3515C16.7695 19.2277 17.3012 18.9949 17.6889 18.6072C18.0767 18.2194 18.3095 17.6877 18.4333 16.7656C18.5597 15.8242 18.5616 14.5821 18.5616 12.834V9.16732C18.5616 7.41924 18.5597 6.17807 18.4333 5.23482C18.3095 4.31357 18.0767 3.7819 17.6889 3.39415C17.3012 3.0064 16.7695 2.77357 15.8473 2.64982C14.9059 2.52332 13.6638 2.52148 11.9157 2.52148H10.0824C8.33433 2.52148 7.09408 2.52332 6.15083 2.64982ZM6.64583 9.16732C6.64583 8.98498 6.71827 8.81011 6.8472 8.68118C6.97613 8.55225 7.151 8.47982 7.33333 8.47982H14.6667C14.849 8.47982 15.0239 8.55225 15.1528 8.68118C15.2817 8.81011 15.3542 8.98498 15.3542 9.16732C15.3542 9.34966 15.2817 9.52452 15.1528 9.65345C15.0239 9.78239 14.849 9.85482 14.6667 9.85482H7.33333C7.151 9.85482 6.97613 9.78239 6.8472 9.65345C6.71827 9.52452 6.64583 9.34966 6.64583 9.16732ZM6.64583 12.834C6.64583 12.6516 6.71827 12.4768 6.8472 12.3479C6.97613 12.2189 7.151 12.1465 7.33333 12.1465H11.9167C12.099 12.1465 12.2739 12.2189 12.4028 12.3479C12.5317 12.4768 12.6042 12.6516 12.6042 12.834C12.6042 13.0163 12.5317 13.1912 12.4028 13.3201C12.2739 13.4491 12.099 13.5215 11.9167 13.5215H7.33333C7.151 13.5215 6.97613 13.4491 6.8472 13.3201C6.71827 13.1912 6.64583 13.0163 6.64583 12.834Z" fill="#616161"/>
</svg>
